<?xml version="1.0" encoding="UTF-8"?>
<svg width="24px" height="24px" viewBox="0 0 24 24" version="1.1" xmlns="http://www.w3.org/2000/svg" xmlns:xlink="http://www.w3.org/1999/xlink">
    <!-- Generator: Sketch 43.1 (39012) - http://www.bohemiancoding.com/sketch -->
    <title>Artboard</title>
    <desc>Created with Sketch.</desc>
    <defs></defs>
    <g id="Page-1" stroke="none" stroke-width="1" fill="none" fill-rule="evenodd">
        <g id="Artboard" fill="#000000">
            <path d="M6.99999958,15.0999995 C5.28999968,15.0999995 3.89999987,13.7099992 3.89999987,11.9999993 C3.89999987,10.2899994 5.28999968,8.89999907 6.99999958,8.89999907 L7.67915862,8.89999907 L6.98762082,7.00001459 C4.23330499,7.00670031 1.99999988,9.24412666 1.99999988,11.9999993 C1.99999988,14.7599993 4.23999955,16.999999 6.99999958,16.999999 L10.6273175,16.999999 L9.93577422,15.0999995 L6.99999958,15.0999995 Z" id="Combined-Shape"></path>
            <path d="M17.0123786,16.999984 C19.7666939,16.9932978 21.9999987,14.7558716 21.9999987,11.9999993 C21.9999987,9.23999925 19.7599988,6.99999958 16.999999,6.99999958 L13.372682,6.99999958 L14.0642253,8.89999907 L16.999999,8.89999907 C18.7099979,8.89999907 20.0999988,10.2899994 20.0999988,11.9999993 C20.0999988,13.7099992 18.7099999,15.0999995 16.999999,15.0999995 L16.3208409,15.0999995 L17.0123787,16.999984 L17.0123786,16.999984 Z" id="Combined-Shape"></path>
            <path d="M14.8840289,17 L11.2443266,7 L9.11597106,7 L12.7556734,17 L14.8840289,17 Z" id="Combined-Shape"></path>
        </g>
    </g>
</svg>